<svg width="15" height="15" viewBox="0 0 15 15" fill="none" xmlns="http://www.w3.org/2000/svg">
<path d="M5.2992 2.38128C5.91498 0.24596 8.9406 0.24596 9.55638 2.38128V2.38128C9.82988 3.32972 10.6979 3.98278 11.685 3.98278H11.7935C14.0107 3.98278 15.0038 6.76374 13.2882 8.1682L12.8517 8.5255C12.1039 9.13762 11.7928 10.1364 12.0605 11.0649L12.2746 11.8073C12.8661 13.8584 10.4577 15.4459 8.80596 14.0937V14.0937C8.00435 13.4375 6.85123 13.4375 6.04962 14.0937V14.0937C4.39784 15.4459 1.98947 13.8584 2.58095 11.8073L2.79506 11.0649C3.06282 10.1364 2.75165 9.13762 2.0039 8.5255L1.56743 8.1682C-0.148231 6.76374 0.844879 3.98278 3.06208 3.98278H3.17061C4.1577 3.98278 5.0257 3.32972 5.2992 2.38128V2.38128Z" fill="#E3170A"/>
</svg>
